<?xml version="1.0" encoding="utf-8"?>
<!-- Generator: Adobe Illustrator 22.0.1, SVG Export Plug-In . SVG Version: 6.00 Build 0)  -->
<svg version="1.1" xmlns="http://www.w3.org/2000/svg" xmlns:xlink="http://www.w3.org/1999/xlink" x="0px" y="0px"
	 viewBox="0 0 1000 1000" style="enable-background:new 0 0 1000 1000;" xml:space="preserve">
<style type="text/css">
	.st0{display:none;}
	.st1{display:inline;fill:#FFCF31;}
	.st2{fill:#FFCF31;}
	.st3{fill:none;stroke:#836630;stroke-width:32;stroke-miterlimit:10;}
	.st4{fill:none;stroke:#836630;stroke-width:13;stroke-miterlimit:10;}
	.st5{fill:none;stroke:#FFCF31;stroke-width:21;}
	.st6{fill:none;stroke:#836630;stroke-width:13;}
	.st7{fill:#FFFFFF;}
</style>
<g id="Layer_1" class="st0">
	
		<image style="display:inline;overflow:visible;opacity:0.44;" width="140" height="140" xlink:href="X:\Libraries\Downloads\logo.png"  transform="matrix(7.1429 0 0 7.1429 0 0)">
	</image>
</g>
<g id="Layer_4" class="st0">
	<rect class="st1" width="1000" height="1000"/>
</g>
<g id="Layer_5" class="st0">
	
		<image style="display:inline;overflow:visible;opacity:0.63;" width="290" height="316" xlink:href="X:\Libraries\Downloads\CE5H1eNWMAAT6bd.jpg"  transform="matrix(2.3605 0 0 2.3605 157.7302 127.044)">
	</image>
</g>
<g id="Layer_2">
	<g>
		<g>
			<path class="st2" d="M796.2,699.1c16.8-9.4,30.6-32.8,30.6-52V352.9c0-19.3-13.8-42.7-30.6-52l-265.6-148
				c-16.8-9.4-44.3-9.4-61.1,0l-265.6,148c-16.8,9.4-30.6,32.8-30.6,52v294.2c0,19.3,13.8,42.7,30.6,52l265.6,148
				c16.8,9.4,44.3,9.4,61.1,0L796.2,699.1z"/>
			<path class="st3" d="M796.2,699.1c16.8-9.4,30.6-32.8,30.6-52V352.9c0-19.3-13.8-42.7-30.6-52l-265.6-148
				c-16.8-9.4-44.3-9.4-61.1,0l-265.6,148c-16.8,9.4-30.6,32.8-30.6,52v294.2c0,19.3,13.8,42.7,30.6,52l265.6,148
				c16.8,9.4,44.3,9.4,61.1,0L796.2,699.1z"/>
		</g>
	</g>
</g>
<g id="Layer_8">
	<path class="st4" d="M359.5,475.7c0,0-112.1-39-95.4-84.9s252.6-4.2,252.6-4.2S629,416.1,656.4,432c27.4,15.9,122,73.7-8.1,92.4
		l-30.6,7"/>
</g>
<g id="Layer_9">
	<g>
		<path class="st4" d="M369.9,415.9l-29.6,21.9c0,0-86.8,63.4-75.1,90.8c5.9,13.9,31.6,15.5,60.2,17.3c11.2,0.7,53.7,1.3,133.1-21.9
			c33.1-9.7,52.8-18.8,52.8-18.8s107.6-37.1,172.4-94.7s-36.5-62.3-36.5-62.3s-23.9-2.2-44.8,9.8"/>
	</g>
	<g>
		<path class="st5" d="M369.9,415.9l-29.6,21.9c0,0-86.8,63.4-75.1,90.8c5.9,13.9,31.6,15.5,60.2,17.3c11.2,0.7,53.7,1.3,133.1-21.9
			c33.1-9.7,52.8-18.8,52.8-18.8s107.6-37.1,172.4-94.7s-36.5-62.3-36.5-62.3s-23.9-2.2-44.8,9.8"/>
	</g>
	<g>
		<path class="st6" d="M369.9,415.9l-29.6,21.9c0,0-86.8,63.4-75.1,90.8c5.9,13.9,31.6,15.5,60.2,17.3c11.2,0.7,53.7,1.3,133.1-21.9
			c33.1-9.7,52.8-18.8,52.8-18.8s107.6-37.1,172.4-94.7s-36.5-62.3-36.5-62.3s-23.9-2.2-44.8,9.8"/>
	</g>
</g>
<g id="Layer_7">
	<path class="st7" d="M379.1,645.4c0,0,15.2-28.4,0-77.2c0,0-14.2,4.2-15.8-17.9c0,0-3.7-39.9-16.3-69.3c0,0-12.1-47.3,19.4-104
		c0,0,29.1-63,133.5-61.5c0,0,81.8,12.1,102.3,19.4c0,0,59.9,6.3,28.4,52.5c0,0,22.1,22.6-3.2,95.1c0,0,69.3,82.5-3.2,77.2
		c0,0,15.8,95.6-78.8,66.7c0,0-7.9,18.4-2.1,32.6c0,0,23.6,35.2-18.4,23.6C483.1,671.1,420.1,667.9,379.1,645.4z"/>
	<path class="st2" d="M469.9,451.1L437.6,500c-33.9,42.2,4.4,17.2,4.4,17.2s53.4-47.2,64.5-55.7c11.1-8.5,13.1-8.1,13.2-13.4
		c-0.8-5.4-15.3-9.7-15.3-9.7c-12.9-2-6.5-6.8-4.5-9.8s33.3-49.6,33.3-49.6c24.4-34.3-5.4-16.6-5.4-16.6l-67.5,60.8
		C460.4,423.2,422,448,469.9,451.1z"/>
</g>
<g id="Layer_8_copy">
	<g>
		<path class="st4" d="M264.1,390.8c16.7-45.9,252.6-4.2,252.6-4.2c33.9,6.9,69.9,17,107.2,31.3c6.2,2.4,12.2,4.8,18.1,7.3"/>
	</g>
	<g>
		<path class="st6" d="M264.1,390.8c16.7-45.9,252.6-4.2,252.6-4.2c33.9,6.9,69.9,17,107.2,31.3c6.2,2.4,12.2,4.8,18.1,7.3"/>
	</g>
</g>
<g id="Layer_9_copy">
	<g>
		<path class="st4" d="M340.3,437.7c0,0-86.8,63.4-75.1,90.8c5.9,13.9,31.6,15.5,60.2,17.3c11.2,0.7,53.7,1.3,133.1-21.9
			c33.1-9.7,52.8-18.8,52.8-18.8s107.6-37.1,172.4-94.7s-36.5-62.3-36.5-62.3"/>
	</g>
	<g>
		<path class="st6" d="M340.3,437.7c0,0-86.8,63.4-75.1,90.8c5.9,13.9,31.6,15.5,60.2,17.3c11.2,0.7,53.7,1.3,133.1-21.9
			c33.1-9.7,52.8-18.8,52.8-18.8s107.6-37.1,172.4-94.7s-36.5-62.3-36.5-62.3"/>
	</g>
</g>
</svg>
