<?xml version="1.0" standalone="no"?>
<!DOCTYPE svg PUBLIC "-//W3C//DTD SVG 20010904//EN"
 "http://www.w3.org/TR/2001/REC-SVG-20010904/DTD/svg10.dtd">
<svg version="1.0" xmlns="http://www.w3.org/2000/svg"
 width="140.000000pt" height="140.000000pt" viewBox="0 0 140.000000 140.000000"
 preserveAspectRatio="xMidYMid meet">
<metadata>
Created by potrace 1.11, written by Peter Selinger 2001-2013
</metadata>
<g transform="translate(0.000000,140.000000) scale(0.100000,-0.100000)"
fill="#000000" stroke="none">
<path d="M569 1176 c-176 -89 -320 -178 -341 -211 -17 -28 -18 -50 -16 -272
l3 -242 29 -30 c17 -17 34 -31 38 -31 5 0 50 -25 101 -56 128 -79 295 -164
322 -164 27 0 194 85 322 164 51 31 96 56 101 56 4 0 21 14 38 31 l29 30 3
242 c2 222 1 244 -16 272 -33 52 -416 265 -477 265 -16 0 -78 -24 -136 -54z
m351 -114 c133 -73 199 -115 207 -132 9 -18 13 -86 13 -232 0 -240 4 -229
-110 -291 -36 -19 -121 -67 -190 -106 -68 -39 -129 -71 -135 -71 -6 0 -67 32
-135 71 -69 39 -154 87 -190 106 -114 62 -110 51 -110 291 0 146 4 214 13 232
14 27 387 239 422 239 11 0 108 -48 215 -107z"/>
<path d="M900 920 c0 -11 7 -14 53 -24 15 -4 27 -12 27 -19 0 -7 -12 -25 -27
-39 l-28 -26 -90 30 c-161 55 -377 74 -445 40 -47 -23 -51 -54 -11 -91 l31
-29 -30 -37 c-37 -46 -37 -58 -4 -84 59 -47 263 -5 468 95 93 46 103 46 140 5
15 -17 16 -23 6 -36 -7 -8 -20 -15 -29 -15 -24 0 -41 -14 -33 -28 12 -18 76 4
91 32 15 27 3 60 -32 87 l-20 17 21 27 c28 35 28 70 0 89 -25 18 -88 22 -88 6z
m-180 -70 c47 -10 108 -27 135 -38 l50 -20 -95 -46 c-85 -41 -127 -55 -250
-87 -40 -10 -131 -12 -154 -3 -24 9 -19 34 10 66 21 21 31 25 45 17 17 -9 19
-6 19 26 0 38 -2 40 -29 25 -15 -7 -25 -4 -46 16 -25 23 -26 27 -13 41 35 35
173 36 328 3z"/>
</g>
</svg>
